<?xml version="1.0" standalone="no"?>
<!DOCTYPE svg PUBLIC "-//W3C//DTD SVG 20010904//EN"
 "http://www.w3.org/TR/2001/REC-SVG-20010904/DTD/svg10.dtd">
<svg version="1.0" xmlns="http://www.w3.org/2000/svg"
 width="1920.000000pt" height="1080.000000pt" viewBox="0 0 1920.000000 1080.000000"
 preserveAspectRatio="xMidYMid meet">

<g transform="translate(0.000000,1080.000000) scale(0.100000,-0.100000)"
fill="#000000" stroke="none">
<path d="M1158 10436 c-77 -18 -91 -23 -353 -147 -126 -59 -264 -119 -305
-133 -170 -56 -309 -59 -478 -10 l-22 6 2 -522 3 -522 100 -54 c55 -30 112
-59 128 -65 15 -6 27 -16 27 -22 0 -6 3 -8 6 -5 3 3 29 -7 57 -23 29 -15 95
-50 147 -76 52 -26 97 -50 100 -53 3 -3 39 -22 80 -44 41 -21 78 -42 81 -47
10 -16 156 142 210 226 28 44 87 148 131 230 97 183 189 323 344 520 212 272
258 360 252 481 -4 83 -32 135 -100 184 -90 66 -292 103 -410 76z"/>
<path d="M12984 10016 c-91 -17 -131 -30 -224 -73 -298 -136 -616 -476 -815
-868 -85 -167 -105 -215 -173 -420 -78 -233 -164 -644 -167 -802 l0 -43 3327
0 c2390 0 3342 -3 3380 -11 206 -43 370 -224 395 -436 l6 -57 33 38 c59 69
136 239 159 351 11 59 7 161 -10 245 -56 272 -305 540 -697 749 -290 155 -595
195 -1193 156 -245 -15 -604 -41 -765 -54 -375 -31 -811 3 -1080 83 -174 51
-337 122 -448 192 -29 19 -55 34 -58 34 -3 0 -35 21 -72 47 -146 102 -266 202
-462 383 -320 295 -488 405 -710 466 -118 32 -316 41 -426 20z"/>
<path d="M16779 7736 c-2 -2 -254 -7 -559 -10 -699 -8 -1976 -38 -2150 -50
-19 -1 -87 -4 -150 -5 -63 -2 -107 -5 -97 -8 20 -5 22 -19 5 -27 -7 -3 -4 -4
8 -1 26 7 56 -4 48 -16 -3 -5 4 -9 16 -9 13 0 19 -4 14 -12 -4 -7 -3 -8 5 -4
13 9 75 -10 94 -28 15 -15 99 -56 114 -56 6 0 28 -15 49 -34 23 -21 53 -37 77
-40 21 -4 36 -10 33 -15 -3 -4 11 -15 30 -24 32 -16 194 -17 2099 -17 l2064 0
3 -145 3 -144 79 73 79 74 -5 95 c-4 79 -10 106 -36 161 -42 89 -112 157 -210
204 l-77 37 -766 3 c-421 1 -767 1 -770 -2z"/>
<path d="M18087 7271 c-4 -17 -3 -21 5 -13 5 5 8 16 6 23 -3 8 -7 3 -11 -10z"/>
<path d="M18355 7280 c-3 -5 -1 -10 4 -10 6 0 11 5 11 10 0 6 -2 10 -4 10 -3
0 -8 -4 -11 -10z"/>
<path d="M8870 7270 c0 -5 -20 -32 -45 -60 -25 -29 -45 -61 -45 -73 0 -26 26
-58 69 -83 16 -10 34 -27 40 -38 5 -12 10 -15 10 -8 1 13 -18 33 -73 75 -49
38 -47 64 9 127 40 45 54 70 40 70 -3 0 -5 -4 -5 -10z"/>
<path d="M9932 7183 c27 -26 28 -26 48 -8 11 10 20 22 20 28 0 5 -9 -1 -20
-14 l-20 -24 -19 23 c-11 12 -23 22 -27 22 -5 0 4 -12 18 -27z"/>
<path d="M9215 7180 c4 -6 11 -8 16 -5 14 9 11 15 -7 15 -8 0 -12 -5 -9 -10z"/>
<path d="M9665 7180 c-3 -5 -1 -10 4 -10 6 0 11 5 11 10 0 6 -2 10 -4 10 -3 0
-8 -4 -11 -10z"/>
<path d="M17690 6932 c0 -4 6 -14 13 -21 10 -11 9 -13 -5 -8 -10 4 -18 -1 -21
-12 -4 -15 -1 -16 19 -7 14 6 22 17 19 24 -3 8 -5 18 -5 23 0 5 -4 9 -10 9 -5
0 -10 -4 -10 -8z"/>
<path d="M17920 6925 c0 -9 7 -18 15 -21 8 -4 15 -13 15 -21 0 -10 -6 -13 -17
-8 -14 5 -15 4 -6 -6 10 -10 16 -9 29 2 15 12 14 15 -5 30 -25 20 -28 34 -5
25 8 -3 12 -2 9 4 -10 16 -35 12 -35 -5z"/>
<path d="M17800 6896 c0 -14 4 -27 9 -30 4 -3 8 8 7 24 -1 36 -16 41 -16 6z"/>
<path d="M17839 6904 c-10 -12 -9 -18 3 -31 19 -18 38 -10 38 17 0 24 -25 33
-41 14z m26 -24 c-5 -8 -11 -8 -17 -2 -6 6 -7 16 -3 22 5 8 11 8 17 2 6 -6 7
-16 3 -22z"/>
<path d="M17985 6911 c-3 -6 0 -8 9 -5 9 4 16 -2 19 -18 5 -23 5 -23 4 1 -2
26 -21 39 -32 22z"/>
<path d="M18096 6913 c-10 -10 -7 -41 4 -48 6 -3 7 1 4 9 -4 11 0 16 10 16 9
0 16 4 16 9 0 11 -26 22 -34 14z"/>
<path d="M17741 6893 c-1 -12 3 -24 8 -27 16 -10 41 5 41 25 0 27 -18 24 -23
-3 -4 -23 -4 -23 -15 2 -10 24 -11 24 -11 3z"/>
<path d="M18039 6892 c12 -22 31 -22 31 0 0 6 -3 8 -7 5 -3 -4 -13 -1 -21 6
-13 10 -14 9 -3 -11z"/>
<path d="M17980 6881 c0 -6 4 -13 10 -16 6 -3 7 1 4 9 -7 18 -14 21 -14 7z"/>
<path d="M9475 6775 l0 -85 403 0 402 0 0 85 0 85 -402 0 -403 0 0 -85z m533
57 c2 -7 -3 -12 -12 -12 -9 0 -16 7 -16 16 0 17 22 14 28 -4z m-378 -7 c0 -8
-10 -16 -22 -16 l-23 -2 23 -4 c27 -5 29 -23 2 -23 -11 0 -20 -7 -20 -15 0 -8
9 -15 20 -15 11 0 20 -4 20 -10 0 -5 -16 -10 -35 -10 l-35 0 0 55 0 55 35 0
c24 0 35 -5 35 -15z m490 -31 c0 -25 4 -43 9 -40 4 3 6 17 3 31 -4 23 -1 25
28 25 27 0 32 -3 27 -20 -3 -11 -1 -22 4 -25 4 -3 6 -12 3 -19 -4 -10 -35 -14
-129 -14 -114 -1 -125 1 -130 19 -4 10 -3 23 0 29 3 5 1 10 -6 10 -7 0 -9 -10
-5 -30 4 -22 2 -30 -9 -30 -10 0 -15 10 -15 30 0 17 -4 30 -10 30 -5 0 -10
-13 -10 -29 0 -27 -2 -29 -42 -29 -23 -1 -48 4 -55 10 -9 7 -13 7 -13 0 0 -7
-26 -11 -64 -11 l-64 0 0 39 -1 39 65 0 c62 0 64 -1 65 -27 l2 -27 4 28 c4 22
9 27 34 27 16 0 29 -6 30 -12 0 -10 2 -10 6 0 2 7 22 12 44 12 21 0 39 5 39
10 0 6 7 10 15 10 8 0 15 -4 15 -10 0 -5 11 -10 25 -10 19 0 25 -6 26 -22 l2
-23 4 23 c3 17 11 22 33 22 16 0 31 -6 33 -12 3 -7 6 -1 6 15 1 17 6 27 16 27
11 0 15 -12 15 -46z"/>
<path d="M9967 6793 c-11 -10 -8 -43 3 -43 6 0 10 11 10 25 0 26 -2 29 -13 18z"/>
<path d="M9695 6770 c3 -5 11 -10 16 -10 6 0 7 5 4 10 -3 6 -11 10 -16 10 -6
0 -7 -4 -4 -10z"/>
<path d="M9111 6778 c1 -29 4 -43 6 -30 3 14 12 22 24 22 10 0 19 5 19 10 0 6
-9 10 -20 10 -11 0 -20 5 -20 10 0 6 9 10 20 10 11 0 20 5 20 10 0 6 -11 10
-25 10 -24 0 -25 -3 -24 -52z"/>
<path d="M10907 6824 c-10 -11 -9 -94 2 -94 6 0 11 15 13 33 l3 32 20 -32 c28
-47 45 -42 45 12 0 25 -4 45 -10 45 -5 0 -10 -15 -11 -32 0 -31 -1 -32 -14
-13 -35 49 -41 56 -48 49z"/>
<path d="M11975 6810 c11 -13 16 -30 13 -50 -3 -16 -1 -30 4 -30 4 0 8 18 8
40 0 22 5 40 10 40 6 0 10 5 10 10 0 6 -14 10 -32 10 -30 0 -31 -1 -13 -20z"/>
<path d="M12732 6808 c-19 -19 -22 -20 -22 -5 0 9 -4 17 -9 17 -5 0 -9 -20 -9
-45 0 -45 18 -66 19 -22 l0 22 16 -22 c21 -32 37 -29 17 2 -16 24 -16 27 1 45
25 28 14 34 -13 8z"/>
<path d="M13407 6823 c-11 -10 -8 -93 3 -93 6 0 10 9 10 20 0 13 7 20 20 20
25 0 36 25 20 45 -13 16 -42 20 -53 8z m43 -28 c0 -8 -7 -15 -15 -15 -8 0 -15
7 -15 15 0 8 7 15 15 15 8 0 15 -7 15 -15z"/>
<path d="M13698 6816 c-9 -8 -13 -27 -10 -50 5 -42 22 -49 23 -8 0 15 2 37 5
50 5 26 1 27 -18 8z"/>
<path d="M14357 6823 c-10 -10 -8 -93 2 -93 5 0 7 9 4 20 -4 15 0 20 16 20 11
0 21 5 21 10 0 6 -9 10 -20 10 -11 0 -20 5 -20 10 0 6 11 10 25 10 14 0 25 5
25 10 0 11 -43 14 -53 3z"/>
<path d="M9212 6778 c2 -23 8 -43 13 -45 6 -2 9 15 7 42 -2 25 -8 45 -14 45
-5 0 -8 -19 -6 -42z"/>
<path d="M10400 6775 c0 -25 5 -45 10 -45 6 0 10 20 10 45 0 25 -4 45 -10 45
-5 0 -10 -20 -10 -45z"/>
<path d="M10710 6812 c0 -7 -11 -12 -25 -12 -22 0 -25 -4 -25 -35 0 -19 5 -35
10 -35 6 0 10 14 10 30 0 38 27 41 32 3 5 -40 23 -38 22 3 -1 32 -24 77 -24
46z"/>
<path d="M11088 6809 c-2 -6 -2 -26 0 -45 3 -24 9 -34 21 -33 10 0 11 2 4 6
-15 5 -18 50 -4 55 5 2 3 8 -4 15 -9 9 -15 9 -17 2z"/>
<path d="M11432 6778 l-2 -48 33 1 c29 2 29 2 5 6 -24 4 -27 10 -31 46 l-4 42
-1 -47z"/>
<path d="M11808 6809 c-2 -6 -2 -26 0 -45 3 -24 9 -34 21 -33 10 0 11 2 4 6
-15 5 -18 50 -4 55 5 2 3 8 -4 15 -9 9 -15 9 -17 2z"/>
<path d="M12311 6778 c-1 -27 3 -48 7 -48 4 0 6 17 4 38 -5 58 -10 62 -11 10z"/>
<path d="M12423 6809 c-12 -12 -2 -71 12 -76 9 -3 12 74 3 83 -2 2 -9 -1 -15
-7z"/>
<path d="M12914 6778 c1 -41 3 -43 31 -43 27 0 30 3 30 30 0 23 -5 31 -22 33
-13 2 -23 8 -23 13 0 5 -4 9 -8 9 -5 0 -8 -19 -8 -42z m51 -14 c0 -10 -8 -20
-17 -22 -18 -3 -26 27 -11 42 12 11 28 0 28 -20z"/>
<path d="M13250 6811 c0 -5 -10 -11 -22 -13 -18 -2 -23 -10 -23 -33 0 -25 4
-30 28 -33 26 -3 27 -2 27 42 0 25 -2 46 -5 46 -3 0 -5 -4 -5 -9z m-3 -37 c8
-21 -13 -42 -28 -27 -13 13 -5 43 11 43 6 0 13 -7 17 -16z"/>
<path d="M13980 6811 c0 -5 -10 -11 -22 -13 -18 -2 -23 -10 -23 -33 0 -26 4
-30 31 -33 30 -3 30 -2 30 43 1 25 -3 45 -8 45 -4 0 -8 -4 -8 -9z m-2 -49 c2
-14 -2 -22 -12 -22 -19 0 -29 17 -22 36 8 22 30 12 34 -14z"/>
<path d="M14620 6811 c0 -5 -10 -11 -22 -13 -18 -2 -23 -10 -23 -33 0 -27 4
-30 33 -33 32 -3 32 -3 32 42 0 25 -4 46 -10 46 -5 0 -10 -4 -10 -9z m-2 -49
c2 -15 -2 -22 -12 -22 -11 0 -16 9 -16 26 0 31 23 28 28 -4z"/>
<path d="M14650 6775 c0 -43 1 -45 29 -45 35 0 45 12 37 46 -4 15 -14 24 -26
24 -11 0 -20 5 -20 10 0 6 -4 10 -10 10 -5 0 -10 -20 -10 -45z m52 3 c7 -19
-2 -38 -18 -38 -8 0 -14 8 -14 18 0 30 23 44 32 20z"/>
<path d="M14892 6775 c-1 -35 1 -45 8 -35 7 12 12 12 22 2 20 -20 33 -14 14 7
-11 12 -14 21 -7 26 6 3 11 11 11 18 0 8 -3 8 -12 -1 -18 -18 -26 -15 -31 11
-2 12 -5 0 -5 -28z"/>
<path d="M15080 6775 c0 -25 5 -45 10 -45 6 0 10 20 10 45 0 25 -4 45 -10 45
-5 0 -10 -20 -10 -45z"/>
<path d="M15268 6809 c-2 -6 -2 -26 0 -45 3 -24 9 -34 21 -33 10 0 11 2 4 6
-15 5 -18 50 -4 55 5 2 3 8 -4 15 -9 9 -15 9 -17 2z"/>
<path d="M15518 6810 c-7 -22 4 -80 16 -80 14 0 13 67 -1 81 -8 8 -12 7 -15
-1z"/>
<path d="M14153 6800 c-16 -7 -23 -18 -24 -40 -1 -16 -2 -36 -3 -42 -1 -16 34
-21 53 -9 11 7 12 13 3 24 -8 9 -9 24 -2 45 9 34 7 36 -27 22z m9 -25 c0 -5
-5 -11 -11 -13 -6 -2 -11 4 -11 13 0 9 5 15 11 13 6 -2 11 -8 11 -13z m8 -55
c0 -5 -7 -10 -15 -10 -8 0 -15 5 -15 10 0 6 7 10 15 10 8 0 15 -4 15 -10z"/>
<path d="M9180 6765 c0 -19 4 -35 8 -35 4 0 6 16 4 35 -2 19 -6 35 -8 35 -2 0
-4 -16 -4 -35z"/>
<path d="M9254 6786 c-11 -29 1 -51 29 -54 15 -2 27 1 27 6 0 6 -9 8 -20 5
-11 -3 -20 0 -20 6 0 6 9 11 21 11 14 0 19 5 17 18 -4 22 -46 29 -54 8z m41
-6 c3 -5 -3 -10 -15 -10 -12 0 -18 5 -15 10 3 6 10 10 15 10 5 0 12 -4 15 -10z"/>
<path d="M10441 6760 c1 -34 1 -34 8 -6 9 41 31 46 31 7 0 -17 5 -31 10 -31
12 0 13 40 2 57 -4 7 -18 11 -30 10 -18 -1 -22 -7 -21 -37z"/>
<path d="M10515 6790 c-8 -14 3 -30 21 -30 8 0 14 -5 14 -11 0 -6 -9 -8 -22
-4 -18 6 -20 4 -12 -5 14 -15 46 -10 52 8 2 7 -5 16 -17 19 -12 3 -21 10 -21
15 0 5 10 6 21 3 15 -5 19 -4 15 4 -9 14 -43 14 -51 1z"/>
<path d="M10592 6791 c-8 -4 -12 -19 -10 -32 2 -18 10 -25 31 -27 15 -2 27 1
27 6 0 6 -9 8 -20 5 -11 -3 -20 0 -20 6 0 6 9 11 21 11 14 0 19 5 17 17 -4 20
-27 27 -46 14z m38 -11 c0 -5 -7 -10 -15 -10 -8 0 -15 5 -15 10 0 6 7 10 15
10 8 0 15 -4 15 -10z"/>
<path d="M11011 6786 c-19 -23 -4 -56 25 -56 28 0 42 25 27 49 -14 22 -37 25
-52 7z m43 -12 c8 -20 -1 -34 -20 -34 -8 0 -14 10 -14 25 0 28 24 34 34 9z"/>
<path d="M11134 6786 c-11 -29 1 -51 29 -54 15 -2 27 1 27 6 0 6 -9 8 -20 5
-11 -3 -20 0 -20 6 0 6 9 11 21 11 14 0 19 5 17 18 -4 22 -46 29 -54 8z m41
-6 c3 -5 -3 -10 -15 -10 -12 0 -18 5 -15 10 3 6 10 10 15 10 5 0 12 -4 15 -10z"/>
<path d="M11210 6786 c0 -7 10 -21 23 -30 l22 -17 -22 5 c-13 2 -23 0 -23 -5
0 -5 11 -9 25 -9 31 0 33 22 3 44 l-23 17 24 -7 c16 -4 21 -3 17 5 -10 16 -46
14 -46 -3z"/>
<path d="M11505 6790 c-5 -9 -1 -10 14 -5 11 3 21 2 21 -3 0 -5 -9 -12 -20
-15 -33 -9 -25 -37 11 -37 28 0 30 2 27 33 -2 24 -8 33 -25 35 -11 2 -24 -2
-28 -8z m35 -40 c0 -5 -7 -10 -16 -10 -8 0 -12 5 -9 10 3 6 10 10 16 10 5 0 9
-4 9 -10z"/>
<path d="M11576 6779 c5 -13 8 -36 9 -51 0 -21 3 -24 11 -15 13 14 36 78 30
84 -2 3 -7 -5 -11 -16 -7 -24 -25 -28 -25 -7 0 8 -5 18 -11 22 -8 4 -9 -1 -3
-17z"/>
<path d="M11644 6786 c-11 -28 1 -51 28 -54 31 -4 48 29 28 53 -16 19 -49 19
-56 1z m44 -24 c2 -14 -2 -22 -12 -22 -19 0 -28 14 -20 35 9 21 28 14 32 -13z"/>
<path d="M11722 6768 c2 -28 8 -34 31 -36 25 -3 27 -1 25 35 -1 37 -1 37 -5 6
-6 -43 -33 -45 -33 -3 0 17 -5 30 -11 30 -6 0 -9 -14 -7 -32z"/>
<path d="M12030 6785 c-18 -21 -3 -55 25 -55 13 0 27 5 30 10 4 7 -2 9 -19 4
-16 -4 -26 -2 -26 5 0 6 11 11 25 11 27 0 32 9 13 28 -16 16 -33 15 -48 -3z
m40 -5 c0 -5 -7 -10 -15 -10 -8 0 -15 5 -15 10 0 6 7 10 15 10 8 0 15 -4 15
-10z"/>
<path d="M12100 6765 c0 -41 17 -47 22 -8 5 40 28 41 29 1 l1 -33 7 29 c9 41
31 46 31 7 0 -17 5 -31 11 -31 6 0 9 14 7 32 -3 32 -4 33 -55 35 l-53 3 0 -35z"/>
<path d="M12231 6748 c1 -29 3 -45 6 -36 2 9 14 18 26 20 17 2 22 10 22 33 0
25 -4 30 -27 33 -28 3 -28 2 -27 -50z m46 26 c8 -21 -13 -42 -28 -27 -13 13
-5 43 11 43 6 0 13 -7 17 -16z"/>
<path d="M12356 6791 c-3 -5 3 -7 14 -4 11 3 20 1 20 -5 0 -5 -12 -13 -26 -16
-32 -8 -26 -30 10 -34 26 -3 27 -1 24 30 -3 32 -29 51 -42 29z m34 -41 c0 -5
-7 -10 -15 -10 -8 0 -15 5 -15 10 0 6 7 10 15 10 8 0 15 -4 15 -10z"/>
<path d="M12474 6786 c-15 -39 23 -74 50 -46 8 9 4 10 -16 5 -18 -5 -28 -3
-28 4 0 6 12 11 26 11 20 0 25 4 20 16 -3 9 -6 18 -6 20 0 11 -41 2 -46 -10z
m36 -6 c0 -5 -7 -10 -16 -10 -8 0 -12 5 -9 10 3 6 10 10 16 10 5 0 9 -4 9 -10z"/>
<path d="M12774 6786 c-11 -29 1 -51 29 -54 15 -2 27 1 27 6 0 6 -9 8 -20 5
-11 -3 -20 0 -20 6 0 6 9 11 21 11 14 0 19 5 17 18 -4 22 -46 29 -54 8z m41
-6 c3 -5 -1 -10 -9 -10 -9 0 -16 5 -16 10 0 6 4 10 9 10 6 0 13 -4 16 -10z"/>
<path d="M12846 6778 c5 -13 8 -35 9 -50 0 -39 10 -35 29 12 19 48 20 78 1 35
l-13 -30 -11 28 c-13 32 -26 37 -15 5z"/>
<path d="M13001 6786 c-19 -23 -4 -56 25 -56 28 0 42 25 27 49 -14 22 -37 25
-52 7z m43 -12 c8 -20 -1 -34 -20 -34 -8 0 -14 8 -14 18 0 33 23 44 34 16z"/>
<path d="M13086 6791 c-3 -5 3 -7 14 -4 11 3 20 1 20 -5 0 -5 -12 -13 -26 -16
-32 -8 -26 -30 10 -34 26 -3 27 -1 24 30 -3 32 -29 51 -42 29z m34 -41 c0 -5
-7 -10 -15 -10 -8 0 -15 5 -15 10 0 6 7 10 15 10 8 0 15 -4 15 -10z"/>
<path d="M13150 6765 c0 -19 5 -35 10 -35 6 0 10 10 10 23 0 13 5 28 12 35 9
9 7 12 -10 12 -18 0 -22 -6 -22 -35z"/>
<path d="M13480 6765 c0 -19 5 -35 10 -35 6 0 10 13 10 29 0 16 6 32 13 34 6
3 2 6 -10 6 -20 1 -23 -4 -23 -34z"/>
<path d="M13531 6786 c-21 -25 -4 -58 27 -54 23 2 27 8 27 33 0 23 -5 31 -21
33 -11 2 -26 -4 -33 -12z m44 -22 c0 -10 -8 -20 -17 -22 -18 -3 -26 27 -11 42
12 11 28 0 28 -20z"/>
<path d="M13611 6781 c-16 -30 -3 -53 28 -49 22 2 26 8 26 33 0 23 -5 31 -22
33 -14 2 -26 -4 -32 -17z m44 -17 c0 -10 -8 -20 -17 -22 -18 -3 -26 27 -11 42
12 11 28 0 28 -20z"/>
<path d="M13730 6765 c0 -19 5 -35 10 -35 6 0 10 10 10 23 0 13 5 28 12 35 9
9 7 12 -10 12 -18 0 -22 -6 -22 -35z"/>
<path d="M13784 6786 c-14 -37 22 -74 48 -48 6 6 0 8 -16 5 -15 -3 -26 -1 -26
6 0 6 12 11 26 11 19 0 25 5 22 18 -4 22 -46 29 -54 8z m36 -6 c0 -5 -7 -10
-16 -10 -8 0 -12 5 -9 10 3 6 10 10 16 10 5 0 9 -4 9 -10z"/>
<path d="M13860 6792 c0 -6 9 -8 20 -5 11 3 20 1 20 -5 0 -6 -10 -12 -22 -14
-33 -4 -29 -32 5 -36 27 -3 28 -1 25 30 -2 25 -8 34 -25 36 -13 2 -23 -1 -23
-6z m35 -42 c-3 -5 -10 -10 -16 -10 -5 0 -9 5 -9 10 0 6 7 10 16 10 8 0 12 -4
9 -10z"/>
<path d="M14010 6765 c0 -19 5 -35 10 -35 6 0 10 16 10 35 0 19 -4 35 -10 35
-5 0 -10 -16 -10 -35z"/>
<path d="M14051 6761 c1 -35 2 -35 8 -7 9 41 31 46 31 7 0 -17 5 -31 11 -31 6
0 9 14 7 33 -3 27 -7 32 -30 33 -26 1 -28 -2 -27 -35z"/>
<path d="M14424 6786 c-11 -29 1 -51 29 -54 15 -2 27 1 27 6 0 6 -8 8 -19 5
-10 -3 -22 0 -25 6 -5 7 3 11 19 11 20 0 26 4 23 18 -4 22 -46 29 -54 8z m41
-6 c3 -5 -3 -10 -15 -10 -12 0 -18 5 -15 10 3 6 10 10 15 10 5 0 12 -4 15 -10z"/>
<path d="M14500 6785 c-18 -22 -3 -55 26 -55 13 0 24 4 24 9 0 5 -9 7 -20 4
-11 -3 -20 0 -20 6 0 6 11 11 25 11 27 0 32 9 13 28 -16 16 -33 15 -48 -3z
m40 -5 c0 -5 -7 -10 -15 -10 -8 0 -15 5 -15 10 0 6 7 10 15 10 8 0 15 -4 15
-10z"/>
<path d="M14746 6791 c-3 -5 3 -7 14 -4 11 3 20 1 20 -5 0 -5 -12 -13 -26 -16
-32 -8 -26 -30 10 -34 26 -3 27 -1 24 30 -3 32 -29 51 -42 29z m34 -41 c0 -5
-7 -10 -15 -10 -8 0 -15 5 -15 10 0 6 7 10 15 10 8 0 15 -4 15 -10z"/>
<path d="M14814 6776 c-3 -14 -3 -30 1 -35 8 -13 55 -15 55 -2 0 5 -8 7 -19 4
-22 -6 -34 9 -25 31 4 11 13 15 26 10 14 -4 18 -2 14 5 -13 21 -45 12 -52 -13z"/>
<path d="M15121 6761 c1 -35 2 -35 8 -7 9 41 31 46 31 7 0 -17 5 -31 11 -31 6
0 9 14 7 33 -3 27 -7 32 -30 33 -26 1 -28 -2 -27 -35z"/>
<path d="M15200 6786 c0 -7 10 -21 23 -30 l22 -17 -28 6 c-19 4 -26 2 -22 -5
9 -15 55 -12 55 4 0 7 -10 21 -22 30 l-23 17 24 -7 c16 -4 21 -3 17 5 -10 16
-46 14 -46 -3z"/>
<path d="M15310 6765 c0 -19 5 -35 10 -35 6 0 10 13 10 29 0 16 6 32 13 34 6
3 2 6 -10 6 -20 1 -23 -4 -23 -34z"/>
<path d="M15363 6770 c2 -30 6 -35 30 -38 25 -3 27 -1 26 35 -1 36 -2 37 -8 8
-3 -17 -13 -30 -21 -30 -8 0 -18 13 -22 30 -6 29 -6 29 -5 -5z"/>
<path d="M15444 6786 c-15 -39 22 -74 49 -47 9 9 5 11 -13 9 -19 -2 -25 2 -25
17 0 15 6 19 23 18 13 -2 21 1 17 7 -9 15 -45 12 -51 -4z"/>
<path d="M15567 6793 c-11 -10 -8 -63 3 -63 6 0 10 16 10 35 0 36 -2 40 -13
28z"/>
<path d="M15604 6786 c-11 -29 0 -51 26 -51 21 0 25 5 25 30 0 24 -5 31 -23
33 -13 2 -24 -3 -28 -12z m43 -12 c8 -21 -13 -42 -28 -27 -13 13 -5 43 11 43
6 0 13 -7 17 -16z"/>
<path d="M15680 6766 c0 -20 5 -36 11 -36 5 0 9 8 8 18 -5 51 21 57 33 6 6
-27 6 -27 5 6 -2 30 -6 35 -29 38 -26 3 -28 1 -28 -32z"/>
<path d="M15764 6789 c-4 -7 4 -20 17 -31 l24 -20 -22 5 c-13 3 -23 1 -23 -4
0 -5 11 -9 25 -9 31 0 33 22 3 44 l-23 17 23 -5 c12 -2 20 0 16 5 -7 13 -31
11 -40 -2z"/>
<path d="M13787 6573 c18 -2 50 -2 70 0 21 2 7 4 -32 4 -38 0 -55 -2 -38 -4z"/>
<path d="M13970 6570 c0 -6 35 -10 85 -10 50 0 85 4 85 10 0 6 -35 10 -85 10
-50 0 -85 -4 -85 -10z"/>
<path d="M14233 6573 c20 -2 54 -2 75 0 20 2 3 4 -38 4 -41 0 -58 -2 -37 -4z"/>
<path d="M14488 6573 c23 -2 59 -2 80 0 20 2 1 4 -43 4 -44 0 -61 -2 -37 -4z"/>
<path d="M14753 6563 c9 -2 23 -2 30 0 6 3 -1 5 -18 5 -16 0 -22 -2 -12 -5z"/>
<path d="M14843 6563 c9 -2 25 -2 35 0 9 3 1 5 -18 5 -19 0 -27 -2 -17 -5z"/>
<path d="M14205 6550 c-3 -5 3 -10 15 -10 12 0 18 5 15 10 -3 6 -10 10 -15 10
-5 0 -12 -4 -15 -10z"/>
<path d="M14260 6550 c0 -5 18 -10 40 -10 22 0 40 5 40 10 0 6 -18 10 -40 10
-22 0 -40 -4 -40 -10z"/>
<path d="M11492 6508 c3 -38 6 -43 29 -46 15 -2 32 4 40 14 13 16 12 16 -7 4
-31 -19 -54 -6 -54 30 0 25 4 30 23 30 13 0 29 -6 36 -12 10 -11 11 -10 6 5
-5 11 -18 17 -42 17 -34 0 -34 0 -31 -42z"/>
<path d="M13773 6543 c15 -2 37 -2 50 0 12 2 0 4 -28 4 -27 0 -38 -2 -22 -4z"/>
<path d="M13868 6543 c7 -3 16 -2 19 1 4 3 -2 6 -13 5 -11 0 -14 -3 -6 -6z"/>
<path d="M13995 6540 c-4 -6 17 -10 54 -10 34 0 61 4 61 10 0 6 -24 10 -54 10
-30 0 -58 -4 -61 -10z"/>
<path d="M14473 6543 c15 -2 37 -2 50 0 12 2 0 4 -28 4 -27 0 -38 -2 -22 -4z"/>
<path d="M14568 6543 c6 -2 18 -2 25 0 6 3 1 5 -13 5 -14 0 -19 -2 -12 -5z"/>
<path d="M14753 6543 c9 -2 23 -2 30 0 6 3 -1 5 -18 5 -16 0 -22 -2 -12 -5z"/>
<path d="M14843 6543 c9 -2 25 -2 35 0 9 3 1 5 -18 5 -19 0 -27 -2 -17 -5z"/>
<path d="M14210 6520 c0 -6 28 -10 65 -10 37 0 65 4 65 10 0 6 -28 10 -65 10
-37 0 -65 -4 -65 -10z"/>
<path d="M13783 6513 c20 -2 54 -2 75 0 20 2 3 4 -38 4 -41 0 -58 -2 -37 -4z"/>
<path d="M14488 6513 c23 -2 59 -2 80 0 20 2 1 4 -43 4 -44 0 -61 -2 -37 -4z"/>
<path d="M9577 6503 c-4 -3 -7 -48 -7 -99 0 -82 2 -95 19 -104 31 -16 1402
-14 1424 3 15 10 17 27 15 107 l-3 95 -721 3 c-396 1 -724 -1 -727 -5z m1441
-97 c2 -65 -1 -92 -10 -98 -15 -9 -1388 -11 -1412 -2 -13 5 -16 23 -16 93 0
48 3 91 7 94 3 4 326 6 717 5 l711 -3 3 -89z"/>
<path d="M11067 6503 c-12 -12 -8 -188 5 -201 8 -8 63 -12 179 -12 204 0 199
-3 199 114 0 50 -5 87 -12 94 -13 13 -359 18 -371 5z m371 -91 c2 -53 -1 -89
-9 -98 -9 -11 -46 -14 -169 -14 -87 0 -165 3 -174 6 -13 5 -16 23 -16 93 0 48
3 91 7 95 4 3 86 5 182 4 l176 -3 3 -83z"/>
<path d="M11160 6445 c-9 -10 -9 -15 -1 -15 6 0 11 -16 11 -35 0 -19 5 -35 10
-35 12 0 13 87 1 94 -5 3 -14 -1 -21 -9z"/>
<path d="M11258 6455 c-4 -4 -4 -20 -1 -36 4 -24 2 -29 -13 -29 -14 0 -15 3
-6 12 7 7 12 17 12 23 -1 14 -30 -26 -30 -41 0 -12 48 -26 54 -15 6 11 -9 93
-16 86z"/>
<path d="M14018 6503 c23 -2 59 -2 80 0 20 2 1 4 -43 4 -44 0 -61 -2 -37 -4z"/>
<path d="M8837 6493 c-11 -11 -8 -193 3 -193 6 0 10 37 10 90 l0 90 75 0 c43
0 75 4 75 10 0 11 -152 14 -163 3z"/>
<path d="M12328 6494 c-5 -4 -8 -16 -8 -26 0 -10 -4 -18 -10 -18 -5 0 -10 5
-10 11 0 6 -12 9 -27 7 -24 -3 -28 -8 -28 -33 0 -26 4 -30 28 -31 20 -1 27 4
27 17 0 11 5 19 10 19 6 0 10 -9 10 -20 0 -24 41 -28 60 -5 16 19 3 55 -20 55
-10 0 -20 7 -22 16 -2 9 -6 12 -10 8z m-41 -40 c-3 -3 -12 -4 -19 -1 -8 3 -5
6 6 6 11 1 17 -2 13 -5z m80 0 c-3 -3 -12 -4 -19 -1 -8 3 -5 6 6 6 11 1 17 -2
13 -5z m3 -29 c0 -8 -7 -15 -15 -15 -8 0 -15 7 -15 15 0 8 7 15 15 15 8 0 15
-7 15 -15z m-85 -5 c-3 -5 -10 -10 -16 -10 -5 0 -9 5 -9 10 0 6 7 10 16 10 8
0 12 -4 9 -10z"/>
<path d="M12483 6483 c-3 -10 -12 -33 -19 -50 -7 -19 -9 -33 -3 -33 5 0 9 5 9
10 0 6 11 10 25 10 14 0 25 -4 25 -10 0 -5 4 -10 9 -10 11 0 -16 87 -30 96 -5
3 -12 -3 -16 -13z m22 -42 c-9 -16 -25 -3 -18 15 4 10 9 12 15 6 6 -6 7 -15 3
-21z"/>
<path d="M12541 6487 c-1 -27 27 -89 38 -83 12 8 42 96 32 96 -4 0 -13 -18
-20 -41 -14 -47 -16 -47 -35 7 -8 21 -15 31 -15 21z"/>
<path d="M12696 6457 c-21 -55 -20 -60 4 -45 16 10 24 10 40 0 11 -7 20 -11
20 -9 0 15 -34 97 -40 97 -4 0 -15 -19 -24 -43z m34 -1 c0 -8 -4 -18 -10 -21
-5 -3 -10 3 -10 14 0 12 5 21 10 21 6 0 10 -6 10 -14z"/>
<path d="M14278 6493 c12 -2 32 -2 45 0 12 2 2 4 -23 4 -25 0 -35 -2 -22 -4z"/>
<path d="M14748 6493 c7 -3 16 -2 19 1 4 3 -2 6 -13 5 -11 0 -14 -3 -6 -6z"/>
<path d="M14858 6493 c6 -2 18 -2 25 0 6 3 1 5 -13 5 -14 0 -19 -2 -12 -5z"/>
<path d="M11670 6441 c0 -47 2 -51 24 -51 28 0 51 24 40 42 -5 7 -8 22 -9 33
0 14 -8 21 -27 23 -27 3 -28 2 -28 -47z m40 19 c0 -5 -4 -10 -9 -10 -6 0 -13
5 -16 10 -3 6 1 10 9 10 9 0 16 -4 16 -10z m10 -40 c0 -5 -7 -10 -15 -10 -8 0
-15 5 -15 10 0 6 7 10 15 10 8 0 15 -4 15 -10z"/>
<path d="M11843 6484 c7 -8 -13 -67 -27 -76 -6 -5 -1 -8 12 -8 13 0 21 4 17
10 -3 5 1 25 9 45 14 32 13 35 -1 35 -9 0 -14 -3 -10 -6z"/>
<path d="M11964 6451 c2 -83 68 -84 74 -2 2 31 0 41 -8 36 -7 -4 -10 -18 -7
-31 2 -13 -1 -32 -8 -41 -18 -25 -43 -2 -48 45 -4 32 -4 31 -3 -7z"/>
<path d="M12117 6483 c-14 -14 -6 -34 18 -45 26 -12 34 -38 12 -38 -7 0 -19 6
-26 13 -11 10 -13 9 -9 -3 3 -9 17 -15 34 -15 22 0 30 5 32 22 3 17 -3 24 -22
29 -14 3 -26 12 -26 20 0 16 16 19 25 4 3 -5 11 -10 17 -10 7 0 6 6 -2 15 -13
16 -42 20 -53 8z"/>
<path d="M12994 6455 c-7 -19 -14 -42 -14 -52 1 -17 1 -17 14 0 17 22 32 22
45 0 5 -10 12 -15 15 -12 9 8 -24 99 -35 99 -6 0 -17 -16 -25 -35z m36 -16 c0
-5 -4 -9 -10 -9 -5 0 -10 7 -10 16 0 8 5 12 10 9 6 -3 10 -10 10 -16z"/>
<path d="M13778 6483 c12 -2 32 -2 45 0 12 2 2 4 -23 4 -25 0 -35 -2 -22 -4z"/>
<path d="M14473 6483 c15 -2 37 -2 50 0 12 2 0 4 -28 4 -27 0 -38 -2 -22 -4z"/>
<path d="M14005 6470 c3 -5 26 -10 51 -10 24 0 44 5 44 10 0 6 -23 10 -51 10
-31 0 -48 -4 -44 -10z"/>
<path d="M14753 6473 c9 -2 23 -2 30 0 6 3 -1 5 -18 5 -16 0 -22 -2 -12 -5z"/>
<path d="M14843 6473 c9 -2 25 -2 35 0 9 3 1 5 -18 5 -19 0 -27 -2 -17 -5z"/>
<path d="M12776 6462 c-3 -6 2 -8 13 -5 23 6 37 -35 15 -44 -21 -8 -31 6 -14
18 13 9 13 10 0 6 -26 -7 -17 -32 13 -35 27 -3 28 -1 25 30 -2 25 -8 34 -25
36 -11 2 -24 -1 -27 -6z"/>
<path d="M13220 6456 c0 -2 8 -10 18 -17 15 -13 16 -12 3 4 -13 16 -21 21 -21
13z"/>
<path d="M8891 6436 c-8 -9 -11 -55 -9 -137 l3 -124 104 -3 c77 -2 107 1 113
10 13 21 10 242 -4 256 -18 18 -192 16 -207 -2z m197 -128 l3 -118 -96 0 -95
0 0 120 0 121 93 -3 92 -3 3 -117z"/>
<path d="M17507 6433 c-4 -3 -7 -91 -7 -195 l0 -188 173 2 172 2 -167 3 -168
3 0 185 0 185 168 3 167 3 -166 2 c-91 1 -169 -1 -172 -5z"/>
<path d="M14503 6423 c15 -2 37 -2 50 0 12 2 0 4 -28 4 -27 0 -38 -2 -22 -4z"/>
<path d="M14273 6413 c15 -2 37 -2 50 0 12 2 0 4 -28 4 -27 0 -38 -2 -22 -4z"/>
<path d="M14136 6395 c-9 -23 -8 -25 9 -25 17 0 19 9 6 28 -7 11 -10 10 -15
-3z"/>
<path d="M13885 6390 c-3 -5 3 -10 15 -10 12 0 18 5 15 10 -3 6 -10 10 -15 10
-5 0 -12 -4 -15 -10z"/>
<path d="M14028 6393 c12 -2 32 -2 45 0 12 2 2 4 -23 4 -25 0 -35 -2 -22 -4z"/>
<path d="M14503 6393 c15 -2 37 -2 50 0 12 2 0 4 -28 4 -27 0 -38 -2 -22 -4z"/>
<path d="M14740 6390 c0 -13 18 -22 24 -11 3 5 -1 11 -9 15 -8 3 -15 1 -15 -4z"/>
<path d="M15680 6381 c-5 -11 -10 -28 -9 -38 0 -10 5 -3 10 15 l10 32 717 -2
717 -3 0 -65 0 -65 -722 0 c-397 0 -719 -3 -714 -8 4 -4 331 -6 727 -5 l719 3
3 54 c2 30 1 65 -3 78 l-5 23 -720 0 c-701 0 -720 0 -730 -19z"/>
<path d="M11973 6373 c15 -2 37 -2 50 0 12 2 0 4 -28 4 -27 0 -38 -2 -22 -4z"/>
<path d="M12987 6373 c18 -2 50 -2 70 0 21 2 7 4 -32 4 -38 0 -55 -2 -38 -4z"/>
<path d="M14503 6373 c15 -2 37 -2 50 0 12 2 0 4 -28 4 -27 0 -38 -2 -22 -4z"/>
<path d="M13893 6335 c0 -22 2 -30 4 -17 2 12 2 30 0 40 -3 9 -5 -1 -4 -23z"/>
<path d="M14023 6363 c9 -2 25 -2 35 0 9 3 1 5 -18 5 -19 0 -27 -2 -17 -5z"/>
<path d="M14370 6360 c0 -5 7 -10 16 -10 8 0 12 5 9 10 -3 6 -10 10 -16 10 -5
0 -9 -4 -9 -10z"/>
<path d="M14600 6360 c0 -5 4 -10 9 -10 6 0 13 5 16 10 3 6 -1 10 -9 10 -9 0
-16 -4 -16 -10z"/>
<path d="M11492 6323 c3 -34 6 -38 32 -41 29 -4 46 10 45 38 0 8 -4 5 -9 -7
-6 -16 -18 -23 -35 -23 -21 0 -25 4 -25 31 0 31 1 31 35 26 21 -3 33 -2 30 4
-4 5 -22 9 -41 9 -35 0 -35 -1 -32 -37z"/>
<path d="M12987 6353 c18 -2 50 -2 70 0 21 2 7 4 -32 4 -38 0 -55 -2 -38 -4z"/>
<path d="M14778 6353 c23 -2 59 -2 80 0 20 2 1 4 -43 4 -44 0 -61 -2 -37 -4z"/>
<path d="M14600 6320 c0 -5 7 -10 16 -10 8 0 12 5 9 10 -3 6 -10 10 -16 10 -5
0 -9 -4 -9 -10z"/>
<path d="M14778 6323 c23 -2 59 -2 80 0 20 2 1 4 -43 4 -44 0 -61 -2 -37 -4z"/>
<path d="M14370 6310 c0 -5 4 -10 9 -10 6 0 13 5 16 10 3 6 -1 10 -9 10 -9 0
-16 -4 -16 -10z"/>
<path d="M15672 6295 c0 -16 2 -22 5 -12 2 9 2 23 0 30 -3 6 -5 -1 -5 -18z"/>
<path d="M14028 6303 c12 -2 32 -2 45 0 12 2 2 4 -23 4 -25 0 -35 -2 -22 -4z"/>
<path d="M14136 6302 c-2 -4 -1 -14 3 -21 6 -10 10 -9 14 3 6 16 -8 32 -17 18z"/>
<path d="M14503 6303 c15 -2 37 -2 50 0 12 2 0 4 -28 4 -27 0 -38 -2 -22 -4z"/>
<path d="M14778 6293 c23 -2 59 -2 80 0 20 2 1 4 -43 4 -44 0 -61 -2 -37 -4z"/>
<path d="M13886 6282 c-3 -6 -1 -14 5 -17 15 -10 25 3 12 16 -7 7 -13 7 -17 1z"/>
<path d="M17733 6266 c-22 -19 -28 -32 -28 -66 0 -55 37 -90 95 -90 49 0 80
35 80 90 0 83 -83 120 -147 66z m83 -56 c8 0 14 -4 14 -10 0 -5 -6 -10 -14
-10 -8 0 -17 -10 -19 -22 l-4 -23 -8 23 c-4 12 -14 22 -21 22 -8 0 -14 5 -14
10 0 6 6 10 14 10 7 0 17 10 21 23 l8 22 4 -22 c2 -13 11 -23 19 -23z"/>
<path d="M14023 6273 c9 -2 25 -2 35 0 9 3 1 5 -18 5 -19 0 -27 -2 -17 -5z"/>
<path d="M14778 6263 c23 -2 59 -2 80 0 20 2 1 4 -43 4 -44 0 -61 -2 -37 -4z"/>
<path d="M15802 6208 c-16 -16 -16 -180 0 -196 17 -17 1179 -17 1196 0 7 7 12
44 12 98 0 54 -5 91 -12 98 -17 17 -1179 17 -1196 0z m1186 -10 c17 -17 16
-162 -2 -177 -9 -8 -174 -10 -597 -9 l-584 3 -3 84 c-2 46 -1 90 2 98 7 18
1165 20 1184 1z"/>
<path d="M9627 6103 c-4 -3 -7 -48 -7 -99 0 -82 2 -95 19 -104 13 -6 239 -10
665 -10 l645 0 15 22 c11 15 16 45 16 91 0 119 78 107 -684 107 -364 0 -666
-3 -669 -7z m1337 -19 c13 -34 6 -152 -10 -168 -14 -14 -87 -16 -654 -16 -351
0 -645 3 -654 6 -13 5 -16 23 -16 93 0 48 3 91 7 94 3 4 302 7 664 7 590 0
657 -2 663 -16z"/>
<path d="M11510 6091 c-16 -31 -12 -143 6 -169 l15 -22 429 0 429 0 15 22 c11
15 16 45 16 86 0 112 44 102 -460 102 -424 0 -440 -1 -450 -19z m894 -7 c10
-26 7 -134 -4 -155 -10 -18 -26 -19 -440 -19 -492 0 -450 -9 -450 99 0 100
-46 91 450 91 390 0 439 -2 444 -16z"/>
<path d="M11790 6017 c0 -35 17 -51 38 -38 6 4 10 20 9 36 -2 23 -8 31 -25 33
-19 3 -22 -1 -22 -31z m40 13 c0 -5 -7 -10 -15 -10 -8 0 -15 5 -15 10 0 6 7
10 15 10 8 0 15 -4 15 -10z m0 -30 c0 -5 -7 -10 -15 -10 -8 0 -15 5 -15 10 0
6 7 10 15 10 8 0 15 -4 15 -10z"/>
<path d="M11984 6012 c1 -21 6 -27 25 -29 16 -1 20 2 11 7 -7 4 -10 15 -7 23
4 12 2 14 -10 10 -11 -4 -14 -2 -9 5 4 7 3 12 -2 12 -5 0 -9 -12 -8 -28z"/>
<path d="M11857 6017 c-8 -21 8 -39 29 -35 27 5 25 42 -2 46 -12 2 -24 -3 -27
-11z m41 -15 c2 -7 -3 -12 -12 -12 -9 0 -16 7 -16 16 0 17 22 14 28 -4z"/>
<path d="M11927 6023 c-12 -12 -7 -41 7 -46 19 -7 40 18 32 38 -6 15 -28 20
-39 8z m33 -18 c0 -8 -7 -15 -15 -15 -8 0 -15 7 -15 15 0 8 7 15 15 15 8 0 15
-7 15 -15z"/>
<path d="M12807 6103 c-12 -12 -8 -168 5 -181 9 -9 83 -12 273 -12 190 0 264
3 273 12 12 12 17 143 6 172 -5 14 -39 16 -278 16 -150 0 -276 -3 -279 -7z
m548 -93 l0 -85 -270 0 -270 0 -3 74 c-2 41 -1 80 2 88 5 11 55 13 273 11
l268 -3 0 -85z"/>
<path d="M12857 6025 c-9 -19 -13 -35 -8 -35 5 0 11 6 14 13 3 9 9 9 25 0 20
-12 20 -11 10 17 -14 43 -23 44 -41 5z m28 5 c3 -5 1 -10 -4 -10 -6 0 -11 5
-11 10 0 6 2 10 4 10 3 0 8 -4 11 -10z"/>
<path d="M12920 6024 c0 -31 2 -34 15 -21 8 9 20 17 27 19 19 7 1 38 -22 38
-16 0 -20 -6 -20 -36z m38 15 c-2 -6 -8 -10 -13 -10 -5 0 -11 4 -13 10 -2 6 4
11 13 11 9 0 15 -5 13 -11z"/>
<path d="M13000 6050 c0 -5 5 -10 10 -10 6 0 10 5 10 10 0 6 -4 10 -10 10 -5
0 -10 -4 -10 -10z"/>
<path d="M12986 6007 c-4 -15 -2 -16 10 -6 11 9 17 9 28 0 12 -10 14 -9 10 6
-3 10 -14 19 -24 19 -10 0 -21 -9 -24 -19z"/>
<path d="M13507 6083 c-4 -3 -7 -17 -7 -30 0 -18 -5 -23 -25 -23 -18 0 -25 -5
-25 -20 0 -15 7 -20 25 -20 20 0 25 -5 25 -25 0 -18 5 -25 20 -25 15 0 20 7
20 24 0 19 6 25 27 28 17 2 29 10 31 21 3 13 -3 17 -27 17 -28 0 -31 3 -31 30
0 28 -17 40 -33 23z m25 -35 c2 -15 11 -24 26 -26 30 -5 28 -22 -3 -22 -20 0
-25 -5 -25 -25 0 -14 -4 -25 -10 -25 -5 0 -10 11 -10 25 0 20 -5 25 -25 25
-14 0 -25 5 -25 10 0 6 11 10 25 10 20 0 25 5 25 25 0 31 17 33 22 3z"/>
<path d="M9345 5990 c-3 -5 -1 -10 4 -10 6 0 11 5 11 10 0 6 -2 10 -4 10 -3 0
-8 -4 -11 -10z"/>
<path d="M15127 5879 c4 -13 8 -18 11 -10 2 7 -1 18 -6 23 -8 8 -9 4 -5 -13z"/>
<path d="M15040 5809 c0 -5 11 -9 25 -9 14 0 25 2 25 4 0 2 -11 6 -25 8 -14 3
-25 1 -25 -3z"/>
<path d="M15120 5809 c0 -5 5 -7 10 -4 6 3 10 8 10 11 0 2 -4 4 -10 4 -5 0
-10 -5 -10 -11z"/>
<path d="M18447 5783 c-13 -12 -7 -23 13 -23 13 0 18 5 14 15 -7 16 -17 19
-27 8z"/>
<path d="M17237 5692 c-35 -38 -12 -102 37 -102 49 0 75 70 38 103 -24 22 -55
21 -75 -1z m68 -42 c4 -6 -8 -10 -29 -10 -20 0 -36 5 -36 10 0 6 13 10 29 10
17 0 33 -4 36 -10z"/>
<path d="M18435 5488 c-3 -7 -4 -233 -3 -503 l3 -490 23 -3 22 -3 0 505 c0
502 0 506 -20 506 -11 0 -23 -6 -25 -12z"/>
<path d="M8962 5398 c-7 -7 -20 -13 -30 -13 -9 0 -16 -6 -14 -14 2 -8 -14 -33
-35 -55 l-38 -41 43 40 c40 37 44 39 56 23 17 -23 36 -23 36 0 0 10 5 23 11
29 12 12 6 43 -9 43 -4 0 -14 -6 -20 -12z m28 -12 c0 -18 -17 -29 -30 -21 -8
5 -7 11 1 21 15 18 29 18 29 0z"/>
<path d="M9744 5384 c-19 -15 -19 -15 1 -6 11 5 27 12 35 15 13 5 13 6 -1 6
-8 1 -24 -6 -35 -15z"/>
<path d="M9370 5339 c-103 -79 -127 -119 -72 -119 41 0 177 108 177 140 0 41
-34 34 -105 -21z m95 11 c-5 -8 -11 -8 -17 -2 -6 6 -7 16 -3 22 5 8 11 8 17 2
6 -6 7 -16 3 -22z m-28 -15 c4 -12 -118 -105 -136 -105 -26 0 -7 30 47 73 55
45 81 54 89 32z"/>
<path d="M9828 5368 c10 -13 8 -18 -12 -32 -14 -9 -30 -16 -35 -16 -14 0 -17
-16 -13 -61 3 -28 9 -39 21 -38 10 0 11 2 4 6 -7 2 -13 22 -13 43 0 32 4 39
30 50 17 7 30 17 30 22 0 5 5 6 10 3 6 -3 10 -2 10 2 0 5 -10 14 -22 22 -21
13 -22 13 -10 -1z"/>
<path d="M9703 5363 c-17 -6 -17 -20 0 -20 8 0 14 6 14 14 0 7 -1 13 -1 12 -1
0 -7 -3 -13 -6z"/>
<path d="M8904 5288 l-29 -33 33 29 c30 28 37 36 29 36 -2 0 -16 -15 -33 -32z"/>
<path d="M9690 5286 c0 -14 4 -27 8 -30 5 -3 6 8 4 25 -5 35 -12 38 -12 5z"/>
<path d="M9890 5300 c0 -5 5 -10 10 -10 6 0 10 5 10 10 0 6 -4 10 -10 10 -5 0
-10 -4 -10 -10z"/>
<path d="M9720 5246 c0 -3 9 -10 20 -16 11 -6 20 -8 20 -6 0 3 -9 10 -20 16
-11 6 -20 8 -20 6z"/>
<path d="M8840 5226 c0 -2 7 -7 16 -10 8 -3 12 -2 9 4 -6 10 -25 14 -25 6z"/>
<path d="M9665 5210 c10 -11 20 -20 23 -20 3 0 -3 9 -13 20 -10 11 -20 20 -23
20 -3 0 3 -9 13 -20z"/>
<path d="M17472 4843 l3 -388 320 -3 c176 -1 330 0 343 3 l22 5 0 385 0 385
-345 0 -345 0 2 -387z m673 2 l0 -370 -327 -3 -328 -2 0 375 0 375 328 -2 327
-3 0 -370z"/>
<path d="M9250 5192 c0 -4 21 -6 48 -4 82 5 89 9 20 11 -38 0 -68 -2 -68 -7z"/>
<path d="M8773 5125 c-3 -9 -3 -19 1 -22 3 -4 6 1 6 10 0 8 8 18 18 20 16 4
16 5 -1 6 -10 0 -20 -6 -24 -14z"/>
<path d="M8893 5115 c-3 -9 -3 -18 -1 -21 3 -3 8 4 11 16 6 23 -1 27 -10 5z"/>
<path d="M9214 5105 c1 -11 9 -21 19 -23 20 -4 34 25 19 40 -8 8 -9 5 -5 -11
4 -15 1 -21 -10 -21 -9 0 -17 8 -20 18 -3 13 -4 12 -3 -3z"/>
<path d="M9660 5104 c0 -15 3 -23 8 -18 4 5 10 11 13 14 4 3 1 11 -7 18 -12
11 -14 8 -14 -14z"/>
<path d="M9705 5121 c-3 -5 -1 -12 5 -16 5 -3 10 1 10 9 0 18 -6 21 -15 7z"/>
<path d="M9731 5114 c0 -11 3 -14 6 -6 3 7 2 16 -1 19 -3 4 -6 -2 -5 -13z"/>
<path d="M8820 5111 c0 -6 4 -13 10 -16 6 -3 7 1 4 9 -7 18 -14 21 -14 7z"/>
<path d="M8851 5104 c0 -11 3 -14 6 -6 3 7 2 16 -1 19 -3 4 -6 -2 -5 -13z"/>
<path d="M9435 5109 c-4 -5 -4 -13 -1 -16 3 -4 6 0 7 8 0 8 4 6 9 -6 7 -16 9
-17 9 -3 1 21 -15 32 -24 17z"/>
<path d="M9772 5106 c7 -8 15 -12 17 -11 5 6 -10 25 -20 25 -5 0 -4 -6 3 -14z"/>
<path d="M9807 5113 c-13 -13 -7 -33 11 -33 13 0 14 2 3 9 -7 5 -10 14 -7 20
8 12 3 15 -7 4z"/>
<path d="M9840 5109 c0 -5 5 -7 10 -4 6 3 10 8 10 11 0 2 -4 4 -10 4 -5 0 -10
-5 -10 -11z"/>
<path d="M9870 5109 c0 -5 5 -7 10 -4 6 3 10 8 10 11 0 2 -4 4 -10 4 -5 0 -10
-5 -10 -11z"/>
<path d="M9278 5083 c7 -3 16 -2 19 1 4 3 -2 6 -13 5 -11 0 -14 -3 -6 -6z"/>
<path d="M9878 5083 c7 -3 16 -2 19 1 4 3 -2 6 -13 5 -11 0 -14 -3 -6 -6z"/>
<path d="M9821 4667 c2 -1 13 -9 24 -17 19 -14 19 -14 6 3 -7 9 -18 17 -24 17
-6 0 -8 -1 -6 -3z"/>
<path d="M9756 4644 c-19 -49 12 -100 56 -91 22 4 21 4 -3 6 -37 2 -53 24 -46
66 6 37 3 45 -7 19z"/>
<path d="M8889 4613 c-13 -16 -12 -17 4 -4 16 13 21 21 13 21 -2 0 -10 -8 -17
-17z"/>
<path d="M8859 4573 c-13 -16 -12 -17 4 -4 9 7 17 15 17 17 0 8 -8 3 -21 -13z"/>
<path d="M7103 4556 c-40 -8 -116 -28 -169 -46 -485 -160 -857 -531 -1015
-1013 -40 -120 -79 -324 -79 -408 l0 -47 69 -41 c38 -22 72 -41 76 -41 3 0 39
-19 78 -43 40 -23 101 -56 137 -72 36 -16 74 -36 85 -45 11 -9 49 -29 85 -45
36 -15 68 -34 72 -40 4 -7 20 -16 35 -20 16 -3 35 -12 43 -20 8 -7 26 -16 40
-20 14 -4 27 -11 30 -15 3 -3 37 -22 75 -40 39 -18 72 -36 75 -40 3 -3 32 -19
65 -34 33 -16 75 -40 93 -53 18 -14 61 -36 95 -50 34 -14 69 -31 77 -38 14
-12 319 -172 380 -200 8 -3 38 -19 65 -35 28 -16 84 -45 125 -66 41 -20 77
-40 80 -44 3 -4 24 -17 46 -29 23 -12 50 -31 59 -41 10 -11 25 -20 34 -20 9 0
28 -11 43 -25 15 -14 31 -25 36 -25 14 0 75 -61 104 -103 17 -25 28 -34 31
-25 3 7 6 3 6 -9 1 -16 7 -23 21 -23 11 0 20 -6 20 -13 0 -17 59 -82 88 -97
14 -7 21 -17 18 -26 -3 -8 -1 -14 5 -14 6 0 7 -4 4 -10 -3 -5 1 -10 9 -10 16
0 66 -45 66 -59 0 -19 45 -27 99 -17 31 5 58 11 59 12 2 1 -14 25 -36 53 -47
59 -87 139 -101 202 -7 28 -11 320 -11 779 l0 735 -82 30 c-139 51 -230 121
-278 216 -29 57 -55 170 -79 344 -43 313 -77 410 -178 517 -62 65 -159 133
-233 163 -59 24 -265 30 -367 11z"/>
<path d="M8829 4533 c-13 -16 -12 -17 4 -4 9 7 17 15 17 17 0 8 -8 3 -21 -13z"/>
<path d="M9783 4373 c15 -2 37 -2 50 0 12 2 0 4 -28 4 -27 0 -38 -2 -22 -4z"/>
<path d="M17477 4353 c-4 -3 -7 -179 -7 -390 l0 -383 345 0 345 0 0 390 0 390
-338 0 c-186 0 -342 -3 -345 -7z m673 -383 l0 -370 -330 0 -330 0 0 370 0 370
330 0 330 0 0 -370z"/>
<path d="M8819 4253 c-13 -16 -12 -17 4 -4 9 7 17 15 17 17 0 8 -8 3 -21 -13z"/>
<path d="M9752 4168 c-1 -73 4 -67 11 10 2 28 1 52 -3 52 -4 0 -7 -28 -8 -62z"/>
<path d="M9809 4153 c12 -18 26 -35 31 -38 19 -12 10 4 -21 37 l-32 33 22 -32z"/>
<path d="M8859 3993 c-13 -16 -12 -17 4 -4 9 7 17 15 17 17 0 8 -8 3 -21 -13z"/>
<path d="M9760 3985 c-6 -8 -10 -20 -7 -27 4 -8 6 -7 6 4 1 9 9 22 19 27 9 6
12 11 6 11 -6 0 -17 -7 -24 -15z"/>
<path d="M9838 3982 c9 -10 19 -17 21 -16 6 5 -20 34 -30 34 -5 0 -1 -8 9 -18z"/>
<path d="M8829 3953 c-13 -16 -12 -17 4 -4 16 13 21 21 13 21 -2 0 -10 -8 -17
-17z"/>
<path d="M8849 3913 c-13 -16 -12 -17 4 -4 9 7 17 15 17 17 0 8 -8 3 -21 -13z"/>
<path d="M9805 3890 c-28 -7 -28 -8 -5 -9 14 0 32 4 40 9 17 11 8 11 -35 0z"/>
<path d="M9751 3728 c1 -68 6 -61 11 15 2 26 0 47 -4 47 -5 0 -7 -28 -7 -62z"/>
<path d="M9800 3783 c8 -4 21 -13 28 -22 11 -14 11 -13 2 7 -6 12 -18 22 -28
21 -14 0 -14 -2 -2 -6z"/>
<path d="M9778 3573 c7 -3 16 -2 19 1 4 3 -2 6 -13 5 -11 0 -14 -3 -6 -6z"/>
<path d="M9757 3529 c7 -7 15 -10 18 -7 3 3 -2 9 -12 12 -14 6 -15 5 -6 -5z"/>
<path d="M9818 3487 c-3 -19 -2 -25 4 -19 6 6 8 18 6 28 -3 14 -5 12 -10 -9z"/>
<path d="M9740 3486 c0 -2 8 -10 18 -17 15 -13 16 -12 3 4 -13 16 -21 21 -21
13z"/>
<path d="M17470 3095 l0 -385 345 0 345 0 0 385 0 385 -345 0 -345 0 0 -385z
m675 0 l0 -370 -327 -3 -328 -2 0 375 0 375 328 -2 327 -3 0 -370z"/>
<path d="M9751 3310 c0 -34 2 -60 5 -57 7 6 7 107 1 114 -3 2 -6 -23 -6 -57z"/>
<path d="M8374 2923 c3 -181 9 -359 11 -398 3 -38 7 -113 10 -166 4 -92 38
-377 51 -429 3 -14 6 -31 6 -37 1 -7 5 -13 10 -13 4 0 8 -10 8 -22 1 -13 12
-36 26 -53 15 -16 23 -24 20 -18 -5 9 1 12 18 11 14 -1 23 -4 21 -6 -6 -6 22
-32 34 -32 6 0 33 -14 59 -30 52 -32 72 -37 72 -19 0 14 41 1 60 -20 19 -21
86 -45 101 -35 7 4 9 3 6 -3 -4 -6 0 -16 8 -23 8 -7 15 -9 15 -4 0 5 7 0 15
-10 8 -11 15 -15 15 -10 0 5 11 11 25 12 77 6 220 67 329 141 l70 46 -430 5
c-236 3 -423 9 -416 13 9 6 12 158 12 702 l0 695 -22 5 c-76 17 -115 25 -127
25 -12 0 -13 -50 -7 -327z"/>
<path d="M9753 3135 c-3 -9 -3 -18 -1 -21 3 -3 8 4 11 16 6 23 -1 27 -10 5z"/>
<path d="M9826 3054 c-11 -8 -16 -14 -10 -14 13 0 39 18 34 24 -3 2 -14 -2
-24 -10z"/>
<path d="M9752 2898 c1 -35 4 -50 6 -35 3 25 7 28 35 25 26 -2 32 -7 31 -26 0
-16 2 -20 10 -12 17 17 -7 45 -43 48 -25 3 -31 8 -31 28 0 33 46 34 60 2 5
-14 9 -17 9 -7 1 23 -20 39 -50 39 -28 0 -28 -1 -27 -62z"/>
<path d="M17470 2386 c0 -139 4 -227 10 -231 7 -4 10 70 10 214 l0 221 330 0
330 0 3 -222 2 -223 3 233 2 232 -345 0 -345 0 0 -224z"/>
<path d="M8850 2524 c-24 -13 -24 -14 -4 -14 12 0 24 7 28 15 3 8 4 15 3 14
-1 -1 -13 -7 -27 -15z"/>
<path d="M8807 2523 c-10 -9 -9 -33 1 -33 4 0 8 9 8 20 0 23 0 22 -9 13z"/>
<path d="M8908 2523 c6 -2 10 -9 6 -14 -3 -5 1 -11 8 -13 42 -13 49 -17 44
-25 -4 -5 -22 -5 -43 -1 -52 12 -54 4 -3 -11 35 -11 43 -10 50 1 10 16 -5 40
-25 40 -7 0 -15 7 -19 15 -3 8 -11 15 -18 14 -10 0 -10 -2 0 -6z"/>
<path d="M9285 2440 c-72 -72 -78 -82 -67 -100 16 -26 15 -28 -5 -33 -10 -3
43 -4 117 -4 74 1 107 2 73 4 -35 2 -63 7 -63 11 0 4 25 32 55 62 30 30 55 59
55 65 0 14 -62 75 -76 75 -5 0 -45 -36 -89 -80z m105 -45 l-50 -50 -32 33 -32
32 49 50 49 50 33 -32 33 -32 -50 -51z m-92 -28 c25 -26 29 -36 20 -45 -19
-19 -53 -14 -78 13 -23 24 -23 25 -5 45 24 26 25 26 63 -13z"/>
<path d="M8838 2483 c7 -3 16 -2 19 1 4 3 -2 6 -13 5 -11 0 -14 -3 -6 -6z"/>
<path d="M9708 2463 c6 -2 18 -2 25 0 6 3 1 5 -13 5 -14 0 -19 -2 -12 -5z"/>
<path d="M9878 2463 c6 -2 18 -2 25 0 6 3 1 5 -13 5 -14 0 -19 -2 -12 -5z"/>
<path d="M8801 2423 c2 -35 2 -35 6 -8 3 16 10 33 16 37 8 5 6 8 -5 8 -14 0
-18 -8 -17 -37z"/>
<path d="M9702 2425 c0 -16 2 -22 5 -12 2 9 2 23 0 30 -3 6 -5 -1 -5 -18z"/>
<path d="M9853 2415 c0 -22 2 -30 4 -17 2 12 2 30 0 40 -3 9 -5 -1 -4 -23z"/>
<path d="M9801 2424 c0 -11 3 -14 6 -6 3 7 2 16 -1 19 -3 4 -6 -2 -5 -13z"/>
<path d="M8843 2380 c0 -30 2 -43 4 -27 2 15 2 39 0 55 -2 15 -4 2 -4 -28z"/>
<path d="M9721 2414 c0 -11 3 -14 6 -6 3 7 2 16 -1 19 -3 4 -6 -2 -5 -13z"/>
<path d="M8952 2380 c0 -19 2 -27 5 -17 2 9 2 25 0 35 -3 9 -5 1 -5 -18z"/>
<path d="M8912 2350 c0 -14 2 -19 5 -12 2 6 2 18 0 25 -3 6 -5 1 -5 -13z"/>
<path d="M8814 2325 c1 -17 9 -20 60 -23 32 -2 63 1 67 5 4 4 -21 7 -56 5 -55
-3 -64 -1 -68 15 -3 15 -4 15 -3 -2z"/>
<path d="M9701 2334 c0 -11 3 -14 6 -6 3 7 2 16 -1 19 -3 4 -6 -2 -5 -13z"/>
<path d="M9825 2340 c-3 -5 -1 -10 4 -10 6 0 11 5 11 10 0 6 -2 10 -4 10 -3 0
-8 -4 -11 -10z"/>
<path d="M9851 2334 c0 -11 3 -14 6 -6 3 7 2 16 -1 19 -3 4 -6 -2 -5 -13z"/>
<path d="M8767 2273 c-4 -3 -7 -17 -7 -30 0 -16 6 -23 19 -23 11 0 22 4 25 9
4 5 -4 7 -15 4 -20 -5 -21 -3 -15 20 6 27 5 32 -7 20z"/>
<path d="M9691 2252 c-1 -28 1 -31 13 -20 8 7 10 15 6 18 -4 3 -10 12 -13 20
-3 8 -6 0 -6 -18z"/>
<path d="M8795 2260 c3 -5 8 -10 11 -10 2 0 4 5 4 10 0 6 -5 10 -11 10 -5 0
-7 -4 -4 -10z"/>
<path d="M9216 2262 c-2 -4 -1 -14 3 -21 6 -9 10 -7 14 8 5 20 -7 29 -17 13z"/>
<path d="M8825 2250 c-8 -13 3 -30 18 -29 9 0 9 2 0 6 -7 2 -13 9 -13 14 0 6
5 7 10 4 6 -3 10 -1 10 4 0 14 -17 14 -25 1z"/>
<path d="M8890 2246 c0 -8 4 -18 10 -21 6 -4 7 1 3 11 -5 13 -3 15 7 9 9 -5
11 -4 6 3 -10 17 -26 15 -26 -2z"/>
<path d="M8932 2240 c0 -14 2 -19 5 -12 2 6 2 18 0 25 -3 6 -5 1 -5 -13z"/>
<path d="M8965 2250 c-8 -13 3 -30 18 -29 9 0 9 2 0 6 -7 2 -13 9 -13 14 0 6
5 7 12 3 7 -4 8 -3 4 4 -9 15 -13 15 -21 2z"/>
<path d="M9737 2245 c-6 -15 10 -32 20 -21 4 3 1 6 -6 6 -7 0 -9 5 -6 10 4 6
11 7 17 4 7 -4 8 -2 4 4 -10 16 -23 15 -29 -3z"/>
<path d="M9782 2240 c0 -14 2 -19 5 -12 2 6 2 18 0 25 -3 6 -5 1 -5 -13z"/>
<path d="M9840 2251 c13 -10 13 -12 0 -22 -13 -9 -13 -10 0 -6 8 2 15 10 15
17 0 7 -7 15 -15 17 -13 4 -13 3 0 -6z"/>
<path d="M9877 2253 c-13 -13 -7 -33 11 -33 14 0 15 2 2 10 -13 9 -13 11 0 20
8 5 10 10 4 10 -6 0 -14 -3 -17 -7z"/>
<path d="M9940 2245 c-10 -12 -9 -16 4 -21 9 -4 20 -4 23 0 4 3 -2 6 -13 6
-19 1 -19 1 0 15 11 8 15 15 9 15 -6 0 -16 -7 -23 -15z"/>
<path d="M9335 2240 c3 -5 8 -10 11 -10 2 0 4 5 4 10 0 6 -5 10 -11 10 -5 0
-7 -4 -4 -10z"/>
<path d="M9375 2240 c-8 -13 3 -30 18 -29 9 0 9 2 0 6 -7 2 -13 9 -13 14 0 5
10 4 23 -2 20 -11 21 -11 8 4 -15 19 -27 21 -36 7z"/>
<path d="M9302 2224 c-7 -8 -8 -14 -3 -14 10 0 25 19 20 25 -2 1 -10 -3 -17
-11z"/>
<path d="M18440 2203 c0 -5 5 -15 10 -23 9 -13 11 -13 20 0 15 22 12 30 -10
30 -11 0 -20 -3 -20 -7z"/>
<path d="M9698 2150 c2 -16 6 -30 8 -30 2 0 4 14 4 30 0 17 -4 30 -8 30 -5 0
-7 -13 -4 -30z"/>
<path d="M9770 2145 c0 -17 6 -25 18 -25 14 0 15 2 2 10 -12 8 -13 12 -2 19
11 7 11 9 -2 14 -12 5 -16 0 -16 -18z"/>
<path d="M9743 2148 c3 -9 1 -19 -6 -22 -9 -3 -9 -5 0 -5 18 -1 27 19 13 32
-10 9 -12 8 -7 -5z"/>
<path d="M9845 2150 c-8 -13 3 -30 18 -29 9 0 9 2 0 6 -7 2 -13 9 -13 14 0 6
5 7 10 4 6 -3 10 -1 10 4 0 14 -17 14 -25 1z"/>
<path d="M8906 2130 c-93 -29 -134 -150 -75 -224 43 -54 54 -56 364 -56 325 0
336 2 375 71 39 71 16 159 -53 196 -28 16 -65 18 -307 20 -151 1 -288 -2 -304
-7z m8 -96 c25 -9 19 -26 -6 -19 -22 6 -22 6 -4 -9 25 -20 32 -20 40 0 4 11
13 14 31 10 19 -5 25 -2 26 11 0 17 1 17 8 0 6 -16 9 -17 19 -4 7 8 22 13 35
12 12 -1 28 -3 35 -4 6 0 12 -9 12 -18 0 -14 2 -15 9 -5 14 23 46 10 49 -21 4
-31 -20 -46 -42 -28 -11 9 -15 9 -20 -1 -5 -11 -7 -11 -12 0 -5 10 -9 10 -20
1 -12 -9 -14 -6 -14 22 0 37 -16 30 -23 -11 -4 -23 -4 -23 -7 5 -2 28 -2 29
-9 6 -5 -17 -15 -25 -38 -27 -18 -2 -35 1 -38 6 -4 6 -13 5 -24 -2 -20 -12
-51 -5 -51 12 0 7 9 9 23 5 l22 -6 -22 17 c-25 18 -30 40 -10 47 6 3 13 6 14
6 1 1 8 -2 17 -5z m346 -21 c0 -3 -10 -3 -22 0 -22 6 -22 6 -3 -9 17 -12 20
-12 28 1 10 18 43 20 50 3 4 -10 8 -10 15 1 6 9 19 11 35 7 19 -4 27 -2 30 11
3 10 5 2 6 -17 2 -32 3 -33 12 -12 13 34 44 25 44 -13 0 -30 -1 -30 -55 -31
-30 0 -61 4 -67 9 -8 6 -18 6 -25 0 -22 -16 -95 -14 -110 4 -12 15 -10 16 15
9 19 -4 26 -3 22 4 -3 5 -13 10 -21 10 -17 0 -19 37 -1 43 13 5 47 -9 47 -20z
m260 -12 c1 -13 3 -13 15 3 22 29 28 13 11 -28 -15 -36 -29 -43 -55 -27 -13 9
-24 58 -15 72 8 13 44 -3 44 -20z"/>
<path d="M8960 1984 c0 -8 6 -11 15 -8 8 4 15 9 15 13 0 4 -7 8 -15 8 -8 0
-15 -6 -15 -13z"/>
<path d="M9280 1985 c0 -8 5 -15 10 -15 6 0 10 7 10 15 0 8 -4 15 -10 15 -5 0
-10 -7 -10 -15z"/>
<path d="M9340 1984 c0 -16 2 -16 24 -8 22 8 20 19 -4 21 -11 1 -20 -4 -20
-13z"/>
<path d="M9498 1975 c2 -14 8 -23 12 -20 10 6 1 45 -10 45 -4 0 -5 -11 -2 -25z"/>
<path d="M17535 2007 c-63 -29 -69 -68 -16 -100 48 -28 114 -16 151 28 12 14
9 20 -16 45 -35 35 -78 45 -119 27z m104 -26 c30 -23 23 -46 -23 -67 -39 -19
-72 -14 -107 16 l-24 20 28 25 c34 30 91 33 126 6z"/>
<path d="M17551 1976 c-21 -26 -9 -51 24 -51 27 0 30 3 30 30 0 23 -5 31 -21
33 -11 2 -26 -4 -33 -12z m47 -19 c4 -20 -25 -34 -40 -19 -15 15 -1 44 19 40
10 -2 19 -11 21 -21z"/>
<path d="M18319 1983 c-13 -16 -12 -17 4 -4 16 13 21 21 13 21 -2 0 -10 -8
-17 -17z"/>
<path d="M18301 1944 c0 -11 3 -14 6 -6 3 7 2 16 -1 19 -3 4 -6 -2 -5 -13z"/>
<path d="M18310 1916 c0 -2 8 -10 18 -17 15 -13 16 -12 3 4 -13 16 -21 21 -21
13z"/>
</g>
</svg>
